<?xml version="1.0" encoding="utf-8"?>
<!-- Generator: Adobe Illustrator 16.0.4, SVG Export Plug-In . SVG Version: 6.00 Build 0)  -->
<!DOCTYPE svg PUBLIC "-//W3C//DTD SVG 1.1//EN" "http://www.w3.org/Graphics/SVG/1.1/DTD/svg11.dtd">
<svg version="1.1" id="Layer_1" xmlns="http://www.w3.org/2000/svg" xmlns:xlink="http://www.w3.org/1999/xlink" x="0px" y="0px"
	 width="128px" height="128px" viewBox="0 0 128 128" enable-background="new 0 0 128 128" xml:space="preserve">
<path fill-rule="evenodd" clip-rule="evenodd" fill="#191717" d="M63.995,0C28.655,0-0.002,28.654-0.002,64.003
	c0,28.278,18.336,52.267,43.771,60.73c3.2,0.583,4.368-1.39,4.368-3.085c0-1.52-0.056-5.548-0.086-10.889
	c-17.803,3.867-21.56-8.58-21.56-8.58c-2.91-7.389-7.106-9.361-7.106-9.361c-5.811-3.968,0.439-3.891,0.439-3.891
	c6.423,0.453,9.803,6.6,9.803,6.6c5.709,9.776,14.979,6.952,18.626,5.317c0.582-4.136,2.235-6.96,4.063-8.556
	c-14.212-1.619-29.153-7.105-29.153-31.633c0-6.987,2.494-12.701,6.588-17.174c-0.658-1.62-2.854-8.127,0.627-16.938
	c0,0,5.374-1.721,17.6,6.561c5.105-1.419,10.581-2.129,16.023-2.154c5.437,0.025,10.909,0.735,16.023,2.154
	c12.221-8.282,17.584-6.561,17.584-6.561c3.492,8.811,1.293,15.318,0.637,16.938c4.099,4.473,6.577,10.187,6.577,17.174
	c0,24.588-14.964,29.999-29.222,31.579c2.298,1.98,4.343,5.887,4.343,11.856c0,8.556-0.076,15.455-0.076,17.558
	c0,1.711,1.151,3.699,4.4,3.077c25.412-8.479,43.729-32.452,43.729-60.723C127.998,28.654,99.344,0,63.995,0z"/>
</svg>
